<svg height="512pt" viewBox="0 0 512 512" width="512pt" xmlns="http://www.w3.org/2000/svg"><path d="m408 504h-400v-416l80-80h320zm0 0" fill="#91e8ed"/><path d="m360 344h-41.28125c-8.265625-56.464844-57.726562-97.644531-114.753906-95.535156-57.027344 2.105468-103.316406 46.816406-107.394532 103.738281-4.082031 56.917969 35.359376 107.777344 91.503907 117.992187 56.144531 10.21875 110.972656-23.488281 127.207031-78.195312h44.71875zm0 0" fill="#e4e8ed"/><path d="m288 360c0 44.183594-35.816406 80-80 80s-80-35.816406-80-80 35.816406-80 80-80 80 35.816406 80 80zm0 0" fill="#00c3ff"/><path d="m360 328h152v80h-152zm0 0" fill="#00c3ff"/><path d="m360 328h32v80h-32zm0 0" fill="#ffea00"/><path d="m88 8v80h-80zm0 0" fill="#ffea00"/><g fill="#fff"><path d="m216 384h-16v-8c0-13.253906 10.746094-24 24-24 4.417969 0 8-3.582031 8-8v-8c0-8.835938-7.164062-16-16-16h-8c-8.835938 0-16 7.164062-16 16v8h-16v-8c0-17.671875 14.328125-32 32-32h8c17.671875 0 32 14.328125 32 32v8c0 13.253906-10.746094 24-24 24-4.417969 0-8 3.582031-8 8zm0 0"/><path d="m200 400h16v16h-16zm0 0"/><path d="m416 360h16v16h-16zm0 0"/><path d="m448 360h16v16h-16zm0 0"/><path d="m480 360h16v16h-16zm0 0"/><path d="m136 224h-16v-24h-48v-17.886719l35.054688-70.113281h28.945312v72h16v16h-16zm-47.054688-40h31.054688v-56h-3.054688zm0 0"/><path d="m328 224h-16v-24h-48v-17.886719l35.054688-70.113281h28.945312v72h16v16h-16zm-47.054688-40h31.054688v-56h-3.054688zm0 0"/><path d="m208 224c-22.082031-.027344-39.972656-17.917969-40-40v-32c0-22.089844 17.910156-40 40-40s40 17.910156 40 40v32c-.027344 22.082031-17.917969 39.972656-40 40zm0-96c-13.253906 0-24 10.746094-24 24v32c0 13.253906 10.746094 24 24 24s24-10.746094 24-24v-32c0-13.253906-10.746094-24-24-24zm0 0"/><path d="m384 96h-16v-48h-48v-16h64zm0 0"/><path d="m96 480h-64v-64h16v48h48zm0 0"/></g><path d="m208 272c-48.601562 0-88 39.398438-88 88s39.398438 88 88 88 88-39.398438 88-88c-.058594-48.578125-39.421875-87.941406-88-88zm0 160c-39.765625 0-72-32.234375-72-72s32.234375-72 72-72 72 32.234375 72 72c-.042969 39.746094-32.253906 71.957031-72 72zm0 0"/><path d="m512 336v-16h-96v-320h-331.3125l-84.6875 84.6875v427.3125h416v-96h96v-16h-112v-64zm-432-308.6875v52.6875h-52.6875zm272 292.6875v16h-26.550781c-12.070313-58.714844-65.664063-99.488281-125.472657-95.457031-59.808593 4.03125-107.441406 51.625-111.523437 111.429687-4.082031 59.804688 36.644531 113.433594 95.351563 125.550782 58.707031 12.121093 117.339843-20.992188 137.273437-77.523438h30.921875v16h48v80h-384v-400h80v-80h304v304zm32 16v64h-16v-64zm-32 16v32h-42.679688l-1.703124 5.710938c-15.097657 51-66.1875 82.4375-118.515626 72.925781-52.328124-9.507813-89.09375-56.90625-85.285156-109.957031 3.808594-53.046876 46.96875-94.710938 100.117188-96.644532 53.152344-1.9375 99.226562 36.476563 106.882812 89.109375l.992188 6.855469zm0 0"/></svg>