<svg height="500pt" viewBox="0 -48 500.00078 500" width="500pt" xmlns="http://www.w3.org/2000/svg"><path d="m222.199219 307c-10.441407 56.207031-63.234375 94.261719-119.859375 86.40625-56.625-7.859375-97.0625-58.851562-91.804688-115.777344 5.253906-56.925781 54.339844-99.65625 111.445313-97.015625s102.042969 49.71875 102.019531 106.886719c.007812 6.542969-.597656 13.070312-1.800781 19.5zm0 0" fill="#fedb41"/><g fill="#00acea"><path d="m42 80h448v64h-448zm0 0"/><path d="m360 232c0 16.292969-13.207031 29.5-29.5 29.5s-29.5-13.207031-29.5-29.5 13.207031-29.5 29.5-29.5 29.5 13.207031 29.5 29.5zm0 0"/><path d="m430 232c0 16.292969-13.207031 29.5-29.5 29.5s-29.5-13.207031-29.5-29.5 13.207031-29.5 29.5-29.5 29.5 13.207031 29.5 29.5zm0 0"/></g><path d="m490 144v123c.007812 22.09375-17.90625 40.007812-40 40h-227.800781c1.214843-6.429688 1.816406-12.957031 1.800781-19.5.003906-43.109375-25.863281-82.011719-65.625-98.679688-39.757812-16.667968-85.632812-7.84375-116.375 22.378907v-67.199219zm-60 88c0-16.292969-13.207031-29.5-29.5-29.5s-29.5 13.207031-29.5 29.5 13.207031 29.5 29.5 29.5c16.296875.007812 29.507812-13.203125 29.5-29.5zm-70 0c0-16.292969-13.207031-29.5-29.5-29.5s-29.5 13.207031-29.5 29.5 13.207031 29.5 29.5 29.5c16.296875.007812 29.507812-13.203125 29.5-29.5zm0 0" fill="#00efd1"/><path d="m490 50v30h-448v-30c-.003906-22.09375 17.90625-40.003906 40-40h368c22.09375-.003906 40.007812 17.90625 40 40zm0 0" fill="#00efd1"/><path d="m450 0h-368c-27.609375.0117188-49.988281 22.390625-50 50v157.101562c-20.640625 21.625-32.109375 50.402344-32 80.296876-.00390625 58.867187 43.730469 108.570312 102.121094 116.050781 58.386718 7.484375 113.242187-29.585938 128.078125-86.550781h219.800781c27.609375-.007813 49.992188-22.386719 50-50v-217c-.054688-27.574219-22.425781-49.898438-50-49.898438zm-398 90h428v44h-428zm30-70h368c16.550781.046875 29.953125 13.453125 30 30v20h-428v-20c.015625-16.5625 13.4375-29.988281 30-30zm130.402344 285.101562c-7.640625 41.109376-40.757813 72.703126-82.183594 78.394532-41.421875 5.6875-81.835938-15.800782-100.273438-53.332032-18.441406-37.527343-10.761718-82.648437 19.054688-111.964843 27.882812-27.378907 69.46875-35.363281 105.503906-20.25 36.039063 15.113281 59.488282 50.375 59.496094 89.449219.023438 5.9375-.511719 11.863281-1.597656 17.703124zm237.597656-8.101562h-216.398438c.300782-3.199219.398438-6.300781.398438-9.5-.007812-43.167969-23.777344-82.824219-61.847656-103.179688-38.070313-20.351562-84.25-18.089843-120.152344 5.878907v-36.199219h428v113c-.046875 16.550781-13.449219 29.953125-30 30zm0 0" fill="#083863"/><path d="m400.5 192.398438c-14.703125 0-28.1875 8.171874-35 21.203124-8.425781-16.117187-26.765625-24.398437-44.425781-20.0625-17.660157 4.339844-30.078125 20.175782-30.078125 38.359376 0 18.1875 12.417968 34.023437 30.078125 38.363281 17.660156 4.335937 36-3.945313 44.425781-20.0625 8.980469 17.175781 29.089844 25.296875 47.476562 19.179687 18.386719-6.117187 29.621094-24.667968 26.519532-43.796875-3.097656-19.128906-19.617188-33.183593-38.996094-33.183593zm-70 59c-7.894531 0-15.011719-4.761719-18.023438-12.058594-3.011718-7.300782-1.328124-15.695313 4.269532-21.261719 5.597656-5.570313 14.003906-7.214844 21.285156-4.164063 7.285156 3.050782 12.011719 10.191407 11.96875 18.085938-.03125 10.738281-8.757812 19.421875-19.5 19.398438zm70 0c-7.894531 0-15.011719-4.761719-18.023438-12.058594-3.011718-7.300782-1.328124-15.695313 4.269532-21.261719 5.597656-5.570313 14.003906-7.214844 21.285156-4.164063 7.285156 3.050782 12.011719 10.191407 11.96875 18.085938-.03125 10.738281-8.757812 19.421875-19.5 19.398438zm0 0" fill="#083863"/><path d="m117 243c9.21875.015625 16.683594 7.484375 16.699219 16.699219 0 5.523437 4.480469 10 10 10 5.523437 0 10-4.476563 10-10-.019531-16.40625-10.914063-30.8125-26.699219-35.300781v-6c0-5.519532-4.476562-10-10-10s-10 4.480468-10 10v6c-17.621094 4.992187-28.867188 22.214843-26.347656 40.355468 2.519531 18.140625 18.03125 31.648438 36.347656 31.644532 9.222656 0 16.699219 7.480468 16.699219 16.703124 0 9.222657-7.476563 16.699219-16.699219 16.699219s-16.699219-7.476562-16.699219-16.699219c0-5.523437-4.476562-10-10-10-5.523437 0-10 4.476563-10 10 .019531 16.40625 10.917969 30.8125 26.699219 35.296876v8.101562c0 5.523438 4.476562 10 10 10s10-4.476562 10-10v-8.101562c17.625-4.988282 28.867188-22.210938 26.347656-40.351563-2.519531-18.140625-18.03125-31.648437-36.347656-31.648437-9.222656 0-16.699219-7.476563-16.699219-16.699219 0-9.222657 7.476563-16.699219 16.699219-16.699219zm0 0" fill="#083863"/></svg>