<svg height="512pt" viewBox="-144 0 512 512" width="512pt" xmlns="http://www.w3.org/2000/svg"><path d="m171.828125 67.621094c0 33.203125-26.914063 60.121094-60.117187 60.121094-33.207032 0-60.121094-26.917969-60.121094-60.121094s26.914062-60.121094 60.121094-60.121094c33.203124 0 60.117187 26.917969 60.117187 60.121094zm0 0" fill="#ffe17d"/><path d="m137.761719 101.691406c-33.203125 0-60.121094-26.917968-60.121094-60.121094 0-9.886718 2.429687-19.1875 6.65625-27.414062-19.40625 9.972656-32.710937 30.144531-32.710937 53.464844 0 33.203125 26.917968 60.121094 60.121093 60.121094 23.320313 0 43.492188-13.300782 53.464844-32.707032-8.226563 4.222656-17.527344 6.65625-27.410156 6.65625zm0 0" fill="#ffd164"/><path d="m199.886719 199.886719h-96.195313c-8.851562 0-16.03125-7.175781-16.03125-16.03125s7.179688-16.03125 16.03125-16.03125h96.195313c8.851562 0 16.03125 7.175781 16.03125 16.03125s-7.175781 16.03125-16.03125 16.03125zm0 0" fill="#c4deff"/><path d="m215.917969 131.75c0 33.203125-26.917969 60.121094-60.121094 60.121094s-60.121094-26.917969-60.121094-60.121094 26.917969-60.121094 60.121094-60.121094 60.121094 26.917969 60.121094 60.121094zm0 0" fill="#c4deff"/><path d="m199.027344 167.824219h-33.007813c-10.207031 0-17.96875-9.300781-15.921875-19.296875 1.105469-5.417969 1.691406-11.027344 1.691406-16.777344 0-20.992188-7.734374-40.144531-20.445312-54.890625-21.003906 9.375-35.667969 30.402344-35.667969 54.890625 0 13.585938 4.628907 26.015625 12.238281 36.074219h-3.363281c-7.984375 0-15.386719 5.457031-16.667969 13.339843-1.636718 10.042969 6.074219 18.722657 15.8125 18.722657h96.191407c9.738281 0 17.449219-8.679688 15.8125-18.722657-1.28125-7.882812-8.683594-13.339843-16.671875-13.339843zm0 0" fill="#a5cdff"/><path d="m31.929688 199.886719 79.78125 304.613281 79.777343-304.613281zm0 0" fill="#f7d291"/><path d="m119.726562 199.886719h-96.195312c-8.855469 0-16.03125-7.175781-16.03125-16.03125s7.175781-16.03125 16.03125-16.03125h96.195312c8.851563 0 16.03125 7.175781 16.03125 16.03125s-7.179687 16.03125-16.03125 16.03125zm0 0" fill="#ff9ba0"/><path d="m127.742188 131.75c0 33.203125-26.917969 60.121094-60.121094 60.121094s-60.121094-26.917969-60.121094-60.121094 26.917969-60.121094 60.121094-60.121094 60.121094 26.917969 60.121094 60.121094zm0 0" fill="#ff9ba0"/><path d="m185.191406 223.933594 6.296875-24.046875h-159.558593l79.78125 304.613281-21.8125-254.460938c-1.203126-14.042968 9.867187-26.101562 23.960937-26.101562h71.332031zm0 0" fill="#f0c382"/><path d="m119.726562 167.824219h-32.066406c-31.0625 0-56.113281-28.269531-56.113281-60.121094 0-10.417969 2.652344-20.214844 7.316406-28.757813-18.683593 10.199219-31.367187 30.019532-31.367187 52.804688 0 13.75 4.667968 26.382812 12.4375 36.511719-7.117188 1.636719-12.4375 7.980469-12.4375 15.59375 0 8.855469 7.179687 16.03125 16.035156 16.03125h96.191406c8.855469 0 16.035156-7.175781 16.035156-16.03125s-7.179687-16.03125-16.03125-16.03125zm0 0" fill="#ff8087"/><path d="m214.464844 165.402344c5.878906-10.191406 8.953125-21.679688 8.953125-33.652344 0-29.019531-18.378907-53.820312-44.101563-63.394531.003906-.246094.011719-.492188.011719-.734375 0-37.285156-30.332031-67.621094-67.617187-67.621094-37.289063 0-67.621094 30.335938-67.621094 67.621094 0 .242187.007812.488281.011718.734375-25.726562 9.574219-44.101562 34.375-44.101562 63.394531 0 11.964844 3.074219 23.457031 8.953125 33.652344-5.449219 4.316406-8.953125 10.980468-8.953125 18.453125 0 12.976562 10.558594 23.53125 23.53125 23.53125h2.609375l78.3125 299.011719c.863281 3.300781 3.847656 5.601562 7.257813 5.601562 3.40625 0 6.390624-2.300781 7.253906-5.601562l78.3125-299.011719h2.609375c12.976562 0 23.53125-10.558594 23.53125-23.53125 0-7.472657-3.503907-14.136719-8.953125-18.453125zm-102.753906-150.402344c28.023437 0 51 22.023438 52.53125 49.675781-2.769532-.347656-5.582032-.546875-8.445313-.546875-16.363281 0-31.792969 5.769532-44.046875 16.332032-12.074219-10.4375-27.574219-16.332032-44.128906-16.332032-2.863282 0-5.675782.199219-8.445313.546875 1.535157-27.652343 24.507813-49.675781 52.535157-49.675781zm16.703124 192.386719-16.703124 16.707031-16.707032-16.707031zm-2.585937 213.59375-3.511719-3.511719 6.007813-6.007812zm31.640625-120.800781-15.296875 15.296874-19.855469-19.855468 19.855469-19.855469 17.1875 17.191406zm-91.519531 0-1.890625-7.222657 17.1875-17.1875 19.855468 19.851563-19.855468 19.855468zm-6.292969-24.03125-7.796875-29.769532 18.78125 18.78125zm52.054688 30.082031 19.851562 19.855469-19.851562 19.851562-19.855469-19.855469zm0-21.214844-19.855469-19.855469 19.855469-19.851562 19.851562 19.851562zm-30.464844-30.460937-19.851563-19.855469 19.851563-19.855469 19.855468 19.855469zm0 82.136718 19.855468 19.855469-16.15625 16.15625-8.242187-31.46875zm13.847656 74.769532 6.007812 6.007812-3.511718 3.515625zm-3.238281-24.453126 19.855469-19.855468 19.851562 19.855468-19.851562 19.851563zm46.617187-14.304687-16.15625-16.15625 19.855469-19.855469 4.542969 4.542969zm14.304688-107.542969 18.78125-18.78125-7.796875 29.769532zm-10.605469-10.605468-19.855469-19.855469 19.855469-19.855469 19.851563 19.855469zm-91.386719-30.460938-6.453125-6.453125-2.6875-10.253906h25.847657zm60.925782 250.804688-9.71875-37.105469 9.71875-9.71875 9.714843 9.71875zm67.375-257.257813-6.453126 6.453125-16.707031-16.707031h25.84375zm20.800781-25.253906h-58.238281c1.035156-2.648438 1.609374-5.523438 1.609374-8.53125 0-9.925781-6.175781-18.4375-14.890624-21.890625 4.476562-9.230469 6.875-19.628906 6.875-30.214844 0-4.144531-3.359376-7.5-7.5-7.5-4.144532 0-7.5 3.355469-7.5 7.5 0 11.566406-3.609376 22.785156-10.167969 31.59375-1.691407 2.273438-1.957031 5.308594-.683594 7.84375 1.269531 2.535156 3.867187 4.132812 6.703125 4.132812h3.628906c4.707032 0 8.535156 3.828126 8.535156 8.53125 0 4.707032-3.828124 8.535157-8.535156 8.535157h-96.191406c-4.707031 0-8.53125-3.828125-8.53125-8.535157 0-4.703124 3.828125-8.53125 8.53125-8.53125h16.035156c4.144532 0 7.5-3.355468 7.5-7.5 0-4.140624-3.355468-7.5-7.5-7.5h-16.035156c-.03125 0-.0625.003907-.097656.003907-5.523438-8.507813-8.433594-18.3125-8.433594-28.574219 0-29.015625 23.605469-52.621094 52.621094-52.621094 18.484375 0 35.28125 9.429688 44.9375 25.222656 2.160156 3.535157 6.773437 4.648438 10.308594 2.488282 3.535156-2.160156 4.648437-6.777344 2.488281-10.3125-1.070313-1.75-2.210938-3.433594-3.414063-5.058594 9.464844-7.988281 21.308594-12.339844 33.855469-12.339844 29.015625 0 52.621094 23.605469 52.621094 52.617188 0 10.269531-2.910157 20.070312-8.433594 28.578125-.03125 0-.0625-.003907-.097656-.003907h-16.03125c-4.140625 0-7.5 3.359376-7.5 7.5 0 4.144532 3.359375 7.5 7.5 7.5h16.03125c4.707031 0 8.53125 3.828126 8.53125 8.53125 0 4.707032-3.828125 8.535157-8.53125 8.535157zm0 0"/></svg>