<svg height="480pt" viewBox="-112 0 480 480.19528" width="480pt" xmlns="http://www.w3.org/2000/svg"><path d="m26.875 44.195312c-2.679688 0-5.179688-1.339843-6.664062-3.566406l-18.640626-28c-1.683593-2.378906-1.945312-5.484375-.675781-8.109375 1.265625-2.625 3.859375-4.351562 6.769531-4.5078122 2.910157-.1562498 5.675782 1.2812502 7.21875 3.7500002l18.640626 28c1.632812 2.453125 1.785156 5.605469.394531 8.207031-1.390625 2.597656-4.09375 4.222656-7.042969 4.226562zm0 0" fill="#787680"/><path d="m240.226562 464.195312h-72v-104c0-4.417968-3.582031-8-8-8-4.417968 0-8 3.582032-8 8v104h-72c-4.417968 0-8 3.582032-8 8 0 4.417969 3.582032 8 8 8h160c4.417969 0 8-3.582031 8-8 0-4.417968-3.582031-8-8-8zm0 0" fill="#acabb1"/><path d="m56.226562 102.59375c11.03125-6.371094 24.144532-8.097656 36.449219-4.796875 12.304688 3.300781 22.792969 11.359375 29.152344 22.398437l20.800781-12c-20.019531-34.144531-63.839844-45.730468-98.113281-25.941406-34.277344 19.792969-46.152344 63.535156-26.59375 97.941406l20.707031-12c-6.375-11.03125-8.097656-24.144531-4.796875-36.449218 3.300781-12.304688 11.355469-22.789063 22.394531-29.152344zm0 0" fill="#e1fd9f"/><path d="m60.226562 81.84375c8.511719-4.921875 17.941407-8.039062 27.707032-9.160156-26.953125-2.953125-53.277344 9.503906-68.078125 32.21875-14.804688 22.71875-15.566407 51.832031-1.980469 75.292968l12.410156-7.160156c-14.691406-33.585937-1.800781-72.851562 29.941406-91.191406zm0 0" fill="#ccfc5c"/><path d="m94.082031 136.195312 27.746094-16c-13.253906-22.976562-42.625-30.855468-65.601563-17.601562-22.972656 13.257812-30.855468 42.625-17.597656 65.601562l29.007813-16.742187c-1.808594-8.675781-3.410157-15.257813-3.410157-15.257813zm0 0" fill="#f9ed32"/><path d="m80.226562 102.59375c3.761719-2.160156 7.796876-3.800781 12-4.878906-18.726562-4.851563-38.535156 2.011718-50.246093 17.410156-11.707031 15.398438-13.03125 36.320312-3.351563 53.070312l19.359375-11.199218c-5.851562-21.082032 3.292969-43.457032 22.238281-54.402344zm0 0" fill="#ffda44"/><path d="m64.226562 56.195312c0 13.253907-10.742187 24-24 24-13.253906 0-24-10.746093-24-24 0-13.253906 10.746094-24 24-24 13.257813 0 24 10.746094 24 24zm0 0" fill="#ff6243"/><path d="m40.226562 56.195312c.019532-8.539062 4.59375-16.421874 12-20.671874-3.632812-2.15625-7.773437-3.304688-12-3.328126-13.253906 0-24 10.746094-24 24 0 13.253907 10.746094 24 24 24 4.226563-.023437 8.367188-1.171874 12-3.328124-7.40625-4.25-11.980468-12.132813-12-20.671876zm0 0" fill="#cd2a00"/><path d="m256.226562 264.195312c-1.421874-20.046874-8-56-8-80h-176c0 24-6.574218 59.953126-8 80-3.757812 52.886719 42.984376 96 96 96 53.015626 0 99.761719-43.113281 96-96zm0 0" fill="#ffde55"/><path d="m88.226562 264.195312c1.425782-20.046874 8-56 8-80h-24c0 24-6.574218 59.953126-8 80-3.757812 52.886719 42.984376 96 96 96 4.015626-.019531 8.019532-.289062 12-.800781-47.847656-5.925781-87.472656-46.351562-84-95.199219zm0 0" fill="#ebbf00"/><path d="m94.082031 136.195312h-29.855469s1.601563 6.582032 3.441407 15.257813c2.464843 10.761719 3.992187 21.714844 4.558593 32.742187h176c1.285157-16.199218 3.960938-32.257812 8-48zm0 0" fill="#e6e7e8"/><path d="m88.226562 136.195312h-24s1.601563 6.582032 3.441407 15.257813c2.464843 10.761719 3.992187 21.714844 4.558593 32.742187h24c-.566406-11.027343-2.09375-21.980468-4.558593-32.742187-1.800781-8.675781-3.441407-15.257813-3.441407-15.257813zm0 0" fill="#bcbec0"/><g fill="#fcedbd"><path d="m192.226562 232.195312c-.507812-.011718-1.015624-.066406-1.519531-.160156-.527343-.074218-1.042969-.234375-1.519531-.480468-.511719-.175782-1-.417969-1.449219-.71875l-1.191406-.960938c-3.09375-3.15625-3.09375-8.203125 0-11.359375.378906-.34375.777344-.664063 1.191406-.960937.449219-.300782.9375-.542969 1.449219-.71875.476562-.246094.992188-.40625 1.519531-.480469.996094-.242188 2.035157-.242188 3.03125 0 .535157.074219 1.050781.238281 1.53125.480469.488281.160156.949219.402343 1.359375.71875.425782.28125.828125.605468 1.199219.960937 1.535156 1.492187 2.398437 3.539063 2.398437 5.679687 0 2.140626-.863281 4.1875-2.398437 5.679688-.371094.355469-.773437.679688-1.199219.960938-.410156.316406-.871094.558593-1.359375.71875-.480469.242187-.996093.40625-1.53125.480468-.496093.09375-1.003906.148438-1.511719.160156zm0 0"/><path d="m208.226562 288.195312c-.535156-.015624-1.070312-.070312-1.597656-.160156-.503906-.085937-.988281-.25-1.441406-.480468-.511719-.175782-1-.417969-1.449219-.71875l-1.191406-.960938c-.722656-.765625-1.292969-1.660156-1.679687-2.640625-.851563-1.9375-.851563-4.140625 0-6.078125.367187-.988281.941406-1.890625 1.679687-2.640625.378906-.34375.777344-.664063 1.191406-.960937.449219-.300782.9375-.542969 1.449219-.71875.453125-.230469.9375-.394532 1.441406-.480469 2.632813-.535157 5.363282.273437 7.277344 2.160156 2.308594 2.289063 3.003906 5.746094 1.757812 8.746094-1.246093 3.003906-4.1875 4.953125-7.4375 4.933593zm0 0"/><path d="m136.226562 312.195312c-3.769531-.039062-6.992187-2.730468-7.699218-6.433593-.707032-3.703125 1.292968-7.390625 4.785156-8.816407 3.492188-1.425781 7.503906-.195312 9.589844 2.945313 2.085937 3.140625 1.671875 7.316406-.996094 9.984375-1.53125 1.460938-3.558594 2.289062-5.679688 2.320312zm0 0"/><path d="m144.226562 264.195312c-2.128906.023438-4.175781-.8125-5.679687-2.320312-1.503906-1.503906-2.339844-3.550781-2.320313-5.679688.015626-1.046874.230469-2.078124.640626-3.039062.40625-.96875.972656-1.863281 1.679687-2.640625 1.890625-1.875 4.589844-2.683594 7.199219-2.160156.535156.074219 1.050781.238281 1.53125.480469.488281.160156.949218.402343 1.359375.71875.445312.257812.851562.582031 1.199219.960937 1.496093 1.515625 2.351562 3.550781 2.390624 5.679687-.023437 2.136719-.882812 4.175782-2.398437 5.679688-.371094.355469-.773437.679688-1.199219.960938-.410156.316406-.871094.558593-1.359375.71875-.480469.242187-.996093.40625-1.53125.480468-.496093.09375-1.003906.148438-1.511719.160156zm0 0"/><path d="m112.226562 232.195312c-2.128906.023438-4.175781-.8125-5.679687-2.320312-1.503906-1.503906-2.339844-3.550781-2.320313-5.679688.015626-1.046874.230469-2.078124.640626-3.039062.386718-.980469.957031-1.875 1.679687-2.640625 3.207031-2.960937 8.152344-2.960937 11.359375 0 .722656.765625 1.292969 1.660156 1.679688 2.640625.855468 1.9375.855468 4.140625 0 6.078125-.386719.980469-.957032 1.875-1.679688 2.640625-1.53125 1.460938-3.5625 2.289062-5.679688 2.320312zm0 0"/></g></svg>