<?xml version="1.0" encoding="iso-8859-1"?>
<!-- Generator: Adobe Illustrator 19.0.0, SVG Export Plug-In . SVG Version: 6.00 Build 0)  -->
<svg version="1.1" id="Layer_1" xmlns="http://www.w3.org/2000/svg" xmlns:xlink="http://www.w3.org/1999/xlink" x="0px" y="0px"
	 viewBox="0 0 512 512" style="enable-background:new 0 0 512 512;" xml:space="preserve">
<path d="M509.013,147.109L398.08,53.243c-2.56-2.133-6.144-2.645-9.131-1.28C385.963,53.413,384,56.4,384,59.728v68.267H25.6
	c-14.08,0-25.6,11.52-25.6,25.6s11.52,25.6,25.6,25.6H384v68.267c0,3.328,1.963,6.315,4.949,7.765
	c1.109,0.512,2.389,0.768,3.584,0.768c1.963,0,3.925-0.683,5.547-2.048l90.624-76.629l20.309-17.237
	c1.877-1.621,2.987-4.011,2.987-6.485C512,151.12,510.891,148.731,509.013,147.109z M384,162.128H25.6
	c-4.693,0-8.533-3.84-8.533-8.533c0-4.693,3.84-8.533,8.533-8.533H384V162.128z M475.136,166.309l-74.069,62.72V78.16l89.173,75.435
	L475.136,166.309z"/>
<polygon style="fill:#9B0045;" points="490.24,153.595 475.136,166.309 401.067,106.149 401.067,78.16 "/>
<polygon style="fill:#CC004E;" points="475.136,166.309 401.067,229.029 401.067,106.149 "/>
<path style="fill:#9B0045;" d="M384,145.061v8.533H17.067c0-4.693,3.84-8.533,8.533-8.533H384z"/>
<path style="fill:#CC004E;" d="M384,153.595v8.533H25.6c-4.693,0-8.533-3.84-8.533-8.533H384z"/>
<path d="M486.4,332.795H128v-68.267c0-3.328-1.963-6.315-4.949-7.765c-2.987-1.365-6.571-0.853-9.131,1.28L2.987,351.909
	C1.109,353.531,0,355.92,0,358.395s1.109,4.864,2.987,6.485l15.104,12.8l75.776,64.085l20.053,16.981
	c1.621,1.365,3.584,2.048,5.547,2.048c1.195,0,2.475-0.256,3.584-0.768c2.987-1.451,4.949-4.437,4.949-7.765v-68.267h358.4
	c14.08,0,25.6-11.52,25.6-25.6S500.48,332.795,486.4,332.795z M110.933,433.829l-17.067-14.421l-62.293-52.736l-9.813-8.277
	l89.173-75.435V433.829z M486.4,366.928H128v-17.067h358.4c4.693,0,8.533,3.84,8.533,8.533S491.093,366.928,486.4,366.928z"/>
<path style="fill:#F6981E;" d="M494.933,358.395H128v-8.533h358.4C491.093,349.861,494.933,353.701,494.933,358.395z"/>
<path style="fill:#FDB50D;" d="M494.933,358.395c0,4.693-3.84,8.533-8.533,8.533H128v-8.533H494.933z"/>
<polygon style="fill:#F6981E;" points="110.933,282.96 110.933,433.829 93.867,419.408 93.867,315.728 31.573,366.672 
	21.76,358.395 "/>
<polygon style="fill:#FDB50D;" points="93.867,315.728 93.867,419.408 31.573,366.672 "/>
<g>
</g>
<g>
</g>
<g>
</g>
<g>
</g>
<g>
</g>
<g>
</g>
<g>
</g>
<g>
</g>
<g>
</g>
<g>
</g>
<g>
</g>
<g>
</g>
<g>
</g>
<g>
</g>
<g>
</g>
</svg>
