<svg height="512" viewBox="0 0 64 64" width="512" xmlns="http://www.w3.org/2000/svg"><g id="Shop"><path d="m8 25h48v36h-48z" fill="#ff3051"/><path d="m8 60v1h48v-36c0 19.346-21.469 35-48 35z" fill="#e52b49"/><path d="m17 57a6 6 0 1 0 -10.463 4h8.926a5.968 5.968 0 0 0 1.537-4z" fill="#4e901e"/><path d="m61 57a6 6 0 1 0 -10.463 4h8.926a5.968 5.968 0 0 0 1.537-4z" fill="#4e901e"/><path d="m60 27v-2h-8v2a4 4 0 0 0 8 0z" fill="#ff5023"/><path d="m52 61h.46a3.989 3.989 0 0 0 -3.12-5.98 1.94 1.94 0 0 0 -.34-.02 3.994 3.994 0 0 0 -3.46 6z" fill="#5eac24"/><path d="m52 25h8l-8-10h-6z" fill="#ff7956"/><path d="m18 15h-6l-8 10h8z" fill="#ff7956"/><path d="m24 15h28v-6a2.006 2.006 0 0 0 -2-2h-6v4h-24v-4h-6a2.006 2.006 0 0 0 -2 2v6z" fill="#ffcd00"/><path d="m22 59a4 4 0 0 0 -4-4 1.94 1.94 0 0 0 -.34.02 3.989 3.989 0 0 0 -3.12 5.98h6.92a3.989 3.989 0 0 0 .54-2z" fill="#5eac24"/><path d="m4 25v2a4 4 0 0 0 8 0v-2z" fill="#ff5023"/><path d="m28 25v2a4 4 0 0 0 8 0v-2z" fill="#d80027"/><path d="m36 25v2a4 4 0 0 0 8 0v-2z" fill="#ff5023"/><path d="m44 25v2a4 4 0 0 0 8 0v-2z" fill="#d80027"/><path d="m30 15-2 10h8l-2-10z" fill="#ed1c24"/><path d="m34 15 2 10h8l-4-10z" fill="#ff7956"/><path d="m40 15 4 10h8l-6-10z" fill="#ed1c24"/><path d="m20 25v2a4 4 0 0 0 8 0v-2z" fill="#ff5023"/><path d="m12 25v2a4 4 0 0 0 8 0v-2z" fill="#d80027"/><path d="m24 15-4 10h8l2-10z" fill="#ff7956"/><path d="m18 15-6 10h8l4-10z" fill="#ed1c24"/><path d="m36 37h-8a2 2 0 0 0 -2 2v22h12v-22a2 2 0 0 0 -2-2z" fill="#005ece"/><path d="m6 61h2.23a2.989 2.989 0 0 0 -2.14-4.99.277.277 0 0 0 -.09-.01 3 3 0 0 0 -3 3 2.965 2.965 0 0 0 .77 2z" fill="#7ed63e"/><path d="m44 11v-4-4h-24v4 4z" fill="#006df0"/><path d="m42 41h10v6h-10z" fill="#ffcd00"/><path d="m12 41h10v6h-10z" fill="#ffcd00"/><path d="m35 48h-1a1 1 0 0 0 0 2h1a1 1 0 0 0 0-2z" fill="#f1f2f2"/></g></svg>