<?xml version="1.0" encoding="iso-8859-1"?>
<!-- Generator: Adobe Illustrator 19.0.0, SVG Export Plug-In . SVG Version: 6.00 Build 0)  -->
<svg version="1.1" id="Capa_1" xmlns="http://www.w3.org/2000/svg" xmlns:xlink="http://www.w3.org/1999/xlink" x="0px" y="0px"
	 viewBox="0 0 436.907 436.907" style="enable-background:new 0 0 436.907 436.907;" xml:space="preserve">
<polygon style="fill:#EE5281;" points="136.371,6.827 197.811,6.827 204.637,47.787 129.544,47.787 "/>
<path d="M204.636,54.613h-75.093c-2.007,0-3.913-0.881-5.207-2.413c-1.3-1.533-1.86-3.553-1.527-5.533l6.827-40.96
	C130.181,2.413,133.027,0,136.367,0h61.44c3.34,0,6.187,2.413,6.733,5.707l6.827,40.96c0.333,1.98-0.227,4-1.527,5.533
	C208.549,53.733,206.643,54.613,204.636,54.613z M137.603,40.96h58.974l-4.547-27.307h-49.881L137.603,40.96z"/>
<path style="fill:#777777;" d="M136.371,47.787h61.44l7.777,34.475c1.659,7.352,6.255,18.425,10.359,24.88l23.033,36.219v122.88
	l-10.788,48.406c-3.285,14.739-0.821,37.738,5.531,51.437l2.372,5.113c6.34,13.669,2.553,33.188-8.371,43.515l-11.313,10.694
	c-2.731,2.582-8.001,4.675-11.762,4.675h-75.116c-3.765,0-9.059-2.135-11.8-4.746l-11.049-10.523
	c-10.94-10.418-14.626-29.916-8.206-43.614l2.396-5.113c6.407-13.669,8.897-36.649,5.536-51.437L95.411,266.24V143.36l23.363-36.34
	c4.064-6.321,8.634-17.401,10.211-24.757L136.371,47.787z"/>
<path d="M204.649,436.907h-75.114c-5.54,0-12.479-2.787-16.514-6.634l-11.047-10.513c-13.107-12.493-17.353-35.092-9.673-51.459
	l2.386-5.113c5.753-12.268,8.073-33.807,5.067-47.027l-11.006-48.406c-0.106-0.493-0.167-1.007-0.167-1.514V143.36
	c0-1.307,0.374-2.594,1.087-3.693l23.366-36.34c3.627-5.641,7.873-15.947,9.274-22.494l7.386-34.48
	c0.674-3.147,3.453-5.393,6.673-5.393h61.44c3.193,0,5.96,2.214,6.659,5.327l7.781,34.473c1.487,6.593,5.82,16.993,9.46,22.714
	l23.033,36.227c0.7,1.094,1.067,2.36,1.067,3.661v122.88c0,0.5-0.053,1-0.167,1.487l-10.786,48.406
	c-2.953,13.247-0.633,34.801,5.06,47.073l2.374,5.12c7.6,16.381,3.26,38.932-9.88,51.347l-11.313,10.694
	C217.082,434.161,210.169,436.907,204.649,436.907z M102.236,265.474l10.841,47.66c3.686,16.247,1.046,40.774-6.019,55.847
	l-2.386,5.113c-5.166,10.999-2.087,27.387,6.721,35.78l11.054,10.513c1.493,1.42,5.067,2.867,7.093,2.867h75.114
	c2.028,0,5.6-1.42,7.074-2.813l11.313-10.687c8.827-8.34,11.967-24.68,6.866-35.68l-2.374-5.12
	c-6.98-15.053-9.614-39.561-5.994-55.793l10.621-47.674V145.348l-21.967-34.546c-4.48-7.033-9.426-18.913-11.261-27.04
	l-6.583-29.148H141.89l-6.233,29.08c-1.741,8.134-6.627,20-11.133,27.013l-22.287,34.661v120.107H102.236z"/>
<rect x="95.411" y="143.36" style="fill:#EE5281;" width="143.36" height="122.88"/>
<path d="M238.769,273.067H95.409c-3.773,0-6.827-3.053-6.827-6.827V143.36c0-3.773,3.053-6.827,6.827-6.827h143.36
	c3.773,0,6.827,3.053,6.827,6.827v122.88C245.596,270.013,242.542,273.067,238.769,273.067z M102.236,259.413h129.707V150.187
	H102.236V259.413z"/>
<polygon style="fill:#EE5281;" points="238.771,6.827 300.211,6.827 307.037,47.787 231.944,47.787 "/>
<path d="M307.036,54.613h-75.093c-2.007,0-3.913-0.881-5.207-2.413c-1.3-1.533-1.86-3.553-1.527-5.533l6.827-40.96
	C232.581,2.413,235.427,0,238.767,0h61.44c3.34,0,6.187,2.413,6.733,5.707l6.827,40.96c0.333,1.98-0.227,4-1.527,5.533
	C310.949,53.733,309.043,54.613,307.036,54.613z M240.003,40.96h58.974l-4.547-27.307h-49.881L240.003,40.96z"/>
<path style="fill:#777777;" d="M238.771,47.787h61.44l7.777,34.475c1.659,7.352,6.255,18.425,10.359,24.88l23.033,36.219v122.88
	l-10.788,48.406c-3.285,14.739-0.821,37.738,5.531,51.437l2.372,5.113c6.34,13.669,2.553,33.188-8.371,43.515l-11.313,10.694
	c-2.731,2.582-8.001,4.675-11.762,4.675h-75.114c-3.765,0-9.059-2.135-11.8-4.746l-11.049-10.523
	c-10.94-10.418-14.626-29.916-8.206-43.614l2.396-5.113c6.407-13.669,8.897-36.649,5.536-51.437l-11.003-48.406V143.36l23.363-36.34
	c4.064-6.321,8.634-17.401,10.211-24.757L238.771,47.787z"/>
<path d="M307.049,436.907h-75.114c-5.54,0-12.479-2.787-16.514-6.634l-11.047-10.513c-13.107-12.493-17.353-35.092-9.673-51.459
	l2.386-5.113c5.753-12.268,8.073-33.807,5.067-47.027l-11.006-48.406c-0.106-0.493-0.167-1.007-0.167-1.514V143.36
	c0-1.307,0.374-2.594,1.087-3.693l23.366-36.34c3.627-5.641,7.873-15.947,9.274-22.494l7.386-34.48
	c0.674-3.147,3.453-5.393,6.673-5.393h61.44c3.193,0,5.96,2.214,6.659,5.327l7.781,34.473c1.487,6.593,5.82,16.993,9.46,22.714
	l23.033,36.227c0.7,1.094,1.067,2.36,1.067,3.661v122.88c0,0.5-0.053,1-0.167,1.487l-10.786,48.406
	c-2.953,13.247-0.633,34.801,5.06,47.073l2.374,5.12c7.6,16.381,3.26,38.932-9.88,51.347l-11.313,10.694
	C319.482,434.161,312.569,436.907,307.049,436.907z M204.636,265.474l10.841,47.66c3.686,16.247,1.046,40.774-6.019,55.847
	l-2.386,5.113c-5.166,10.999-2.087,27.387,6.721,35.78l11.054,10.513c1.493,1.42,5.067,2.867,7.093,2.867h75.114
	c2.028,0,5.6-1.42,7.074-2.813l11.313-10.687c8.827-8.34,11.967-24.68,6.866-35.68l-2.374-5.12
	c-6.98-15.053-9.614-39.561-5.994-55.793l10.621-47.674V145.348l-21.967-34.546c-4.48-7.033-9.426-18.913-11.261-27.04
	l-6.583-29.148H244.29l-6.233,29.08c-1.741,8.134-6.627,20-11.133,27.013l-22.287,34.661v120.107H204.636z"/>
<rect x="197.804" y="143.36" style="fill:#84D839;" width="143.36" height="122.88"/>
<path d="M341.169,273.067h-143.36c-3.773,0-6.827-3.053-6.827-6.827V143.36c0-3.773,3.053-6.827,6.827-6.827h143.36
	c3.773,0,6.827,3.053,6.827,6.827v122.88C347.996,270.013,344.942,273.067,341.169,273.067z M204.636,259.413h129.707V150.187
	H204.636V259.413z"/>
<g>
</g>
<g>
</g>
<g>
</g>
<g>
</g>
<g>
</g>
<g>
</g>
<g>
</g>
<g>
</g>
<g>
</g>
<g>
</g>
<g>
</g>
<g>
</g>
<g>
</g>
<g>
</g>
<g>
</g>
</svg>
