<?xml version="1.0" encoding="iso-8859-1"?>
<!-- Generator: Adobe Illustrator 19.0.0, SVG Export Plug-In . SVG Version: 6.00 Build 0)  -->
<svg version="1.1" id="Capa_1" xmlns="http://www.w3.org/2000/svg" xmlns:xlink="http://www.w3.org/1999/xlink" x="0px" y="0px"
	 viewBox="0 0 512 512" style="enable-background:new 0 0 512 512;" xml:space="preserve">
<path style="fill:#FFC554;" d="M105.682,329.077c0-2.813,3.03-14.972,7.791-32.317c-0.692-0.29-1.371-0.571-2.079-0.87
	c-19.873-8.369-26.504-26.654-30.345-51.534c-6.254-40.519-12.721-82.419-56.948-104.022c-0.694-0.338-1.45-0.51-2.207-0.51
	c-0.591,0-1.183,0.105-1.748,0.314c-1.289,0.479-2.327,1.464-2.871,2.728l-9.369,21.768c-1.048,2.434-0.028,5.263,2.331,6.467
	c26.235,13.398,31.34,38.521,37.495,78.399c3.409,22.092,7.273,47.132,17.515,71.295c13.477,31.801,32.714,46.702,49.242,53.58
	C108.736,360.194,105.682,344.861,105.682,329.077z"/>
<path style="opacity:0.1;fill:#2F003A;enable-background:new    ;" d="M108.263,353.935c-9.294-8.713-18.243-20.933-25.514-38.089
	c-10.241-24.163-14.106-49.203-17.515-71.295c-6.155-39.88-11.259-65.001-37.495-78.399c-2.359-1.204-3.379-4.033-2.331-6.467
	l6.499-15.1c-2.462-1.491-5.06-2.91-7.804-4.251c-0.694-0.338-1.45-0.51-2.207-0.51c-0.591,0-1.183,0.105-1.748,0.314
	c-1.289,0.479-2.327,1.464-2.871,2.728l-9.369,21.768c-1.048,2.434-0.028,5.263,2.331,6.467
	c26.235,13.398,31.34,38.521,37.495,78.399c3.409,22.092,7.273,47.132,17.515,71.295c13.477,31.801,32.714,46.702,49.242,53.58
	C111.817,367.787,109.733,360.95,108.263,353.935z"/>
<path id="SVGCleanerId_0" style="fill:#FCE591;" d="M288.846,303.685c0-3.103,2.518-5.618,5.619-5.618h44.411
	c-17.123-62.492-57.783-195.978-58.572-196.886c-1.067-1.229-2.615-1.935-4.244-1.935H175.974c-1.628,0-3.176,0.705-4.242,1.935
	c-0.969,1.116-66.048,214.856-66.048,227.897c0,36.551,16.334,70.695,44.816,93.682c1,0.807,2.245,1.246,3.529,1.246h143.981
	c1.283,0,2.528-0.439,3.528-1.246c2.16-1.743,4.242-3.56,6.261-5.428C295.688,385.971,288.846,346.005,288.846,303.685z"/>
<path style="fill:#C1262C;" d="M205.788,46.423c0,5.586,4.528,10.115,10.114,10.115h20.227c5.586,0,10.113-4.529,10.113-10.115l0,0
	c0-5.584-4.527-10.112-10.113-10.112h-20.227C210.316,36.311,205.788,40.839,205.788,46.423L205.788,46.423z"/>
<path style="fill:#FFC554;" d="M311.714,128.456c15.599,0,38.258,31.519,38.258,80.91c0,29.078-7.854,51.942-17.497,65.841
	c2.364,8.303,4.52,15.998,6.399,22.857h11.386c16.83-19.768,27.805-52.118,27.805-88.699c0-60.203-29.704-109.004-66.351-109.004
	c-10.122,0-19.71,3.737-28.293,10.397c2.205,7.046,5.45,17.589,9.321,30.303C299.013,132.902,305.859,128.456,311.714,128.456z"/>
<path style="fill:#EF5050;" d="M271.432,99.245c-1.449-23.827-21.222-42.707-45.416-42.707c-24.192,0-43.968,18.879-45.418,42.707
	H271.432z"/>
<path style="opacity:0.1;fill:#2F003A;enable-background:new    ;" d="M212.072,99.245c1.118-18.378,13.137-33.814,29.681-39.91
	c-4.904-1.808-10.205-2.797-15.737-2.797c-24.192,0-43.968,18.879-45.418,42.707H212.072z"/>
<g>
	<path id="SVGCleanerId_0_1_" style="fill:#FCE591;" d="M288.846,303.685c0-3.103,2.518-5.618,5.619-5.618h44.411
		c-17.123-62.492-57.783-195.978-58.572-196.886c-1.067-1.229-2.615-1.935-4.244-1.935H175.974c-1.628,0-3.176,0.705-4.242,1.935
		c-0.969,1.116-66.048,214.856-66.048,227.897c0,36.551,16.334,70.695,44.816,93.682c1,0.807,2.245,1.246,3.529,1.246h143.981
		c1.283,0,2.528-0.439,3.528-1.246c2.16-1.743,4.242-3.56,6.261-5.428C295.688,385.971,288.846,346.005,288.846,303.685z"/>
</g>
<g style="opacity:0.1;">
	<path d="M136.998,329.077c0-13.042,65.079-226.781,66.048-227.897c1.066-1.229,2.614-1.935,4.242-1.935h-31.315
		c-1.628,0-3.176,0.705-4.242,1.935c-0.969,1.116-66.048,214.856-66.048,227.897c0,36.551,16.334,70.695,44.816,93.682
		c1,0.807,2.245,1.246,3.529,1.246h31.315c-1.284,0-2.529-0.439-3.529-1.246C153.332,399.773,136.998,365.628,136.998,329.077z"/>
</g>
<g>
	<path style="fill:#EF5050;" d="M265.16,221.799c-1.34,2.402-1.34,6.332,0,8.734l11.206,20.093c1.34,2.402,3.531,2.402,4.871,0
		l11.205-20.093c1.34-2.402,1.34-6.332,0-8.734l-11.205-20.093c-1.34-2.402-3.531-2.402-4.871,0L265.16,221.799z"/>
	<path style="fill:#EF5050;" d="M210.851,221.799c-1.34,2.402-1.34,6.332,0,8.734l11.206,20.093c1.34,2.402,3.531,2.402,4.871,0
		l11.206-20.093c1.34-2.402,1.34-6.332,0-8.734l-11.206-20.093c-1.34-2.402-3.531-2.402-4.871,0L210.851,221.799z"/>
	<path style="fill:#EF5050;" d="M156.513,221.799c-1.34,2.402-1.34,6.332,0,8.734l11.206,20.093c1.34,2.402,3.531,2.402,4.871,0
		l11.206-20.093c1.34-2.402,1.34-6.332,0-8.734l-11.206-20.093c-1.34-2.402-3.531-2.402-4.871,0L156.513,221.799z"/>
</g>
<path style="fill:#FFC554;" d="M495.94,329.532h-41.836c-0.512,7.63-1.244,15.136-2.195,22.475h25.472l-14.126,49.443h-21.768
	c-2.418,7.933-5.137,15.45-8.137,22.475h35.62c6.181,0,12.627-4.863,14.324-10.805l20.794-72.784
	C505.788,334.394,502.121,329.532,495.94,329.532z"/>
<path style="fill:#EF5050;" d="M420.988,447.524c21.342-33.108,33.986-86.301,33.986-143.84c0-3.103-2.514-5.618-5.618-5.618
	H294.465c-3.102,0-5.619,2.516-5.619,5.618c0,57.539,12.642,110.731,33.986,143.84H420.988z"/>
<path style="opacity:0.1;fill:#2F003A;enable-background:new    ;" d="M353.861,447.524c-21.344-33.108-33.986-86.301-33.986-143.84
	c0-3.103,2.518-5.618,5.619-5.618h-31.03c-3.102,0-5.619,2.516-5.619,5.618c0,57.539,12.642,110.731,33.986,143.84H353.861z"/>
<path style="fill:#FFC554;" d="M449.171,475.688c1.65,0,3.675-1.169,4.5-2.599l13.26-22.967c0.825-1.429,0.15-2.598-1.5-2.598
	H278.389c-1.65,0-2.325,1.169-1.5,2.598l13.262,22.968c0.825,1.429,2.85,2.598,4.5,2.598L449.171,475.688L449.171,475.688z"/>
<g style="opacity:0.1;">
	<path d="M321.615,473.09l-13.262-22.968c-0.825-1.429-0.15-2.598,1.5-2.598h-31.466c-1.65,0-2.325,1.169-1.5,2.598l13.262,22.968
		c0.825,1.429,2.85,2.598,4.5,2.598h31.466C324.465,475.688,322.44,474.519,321.615,473.09z"/>
</g>
<g>
	<path style="fill:#FFFFFF;" d="M407.567,357.47c-1.275,2.437-1.275,6.423,0,8.859l9.377,17.915c1.275,2.437,3.361,2.437,4.637,0
		l9.378-17.915c1.274-2.437,1.275-6.423,0-8.859l-9.378-17.917c-1.275-2.437-3.361-2.437-4.637,0L407.567,357.47z"/>
	<path style="fill:#FFFFFF;" d="M360.226,357.47c-1.275,2.437-1.274,6.423,0,8.859l9.378,17.915c1.275,2.437,3.361,2.437,4.637,0
		l9.377-17.915c1.275-2.437,1.275-6.423,0-8.859l-9.377-17.917c-1.275-2.437-3.361-2.437-4.637,0L360.226,357.47z"/>
	<path style="fill:#FFFFFF;" d="M312.858,357.47c-1.275,2.437-1.275,6.423,0,8.859l9.379,17.915c1.275,2.437,3.361,2.437,4.637,0
		l9.377-17.915c1.275-2.437,1.275-6.423,0-8.859l-9.377-17.917c-1.275-2.437-3.361-2.437-4.637,0L312.858,357.47z"/>
</g>
<path d="M456.074,207.835c-4.143,0-7.5,3.357-7.5,7.5s3.357,7.5,7.5,7.5h9.307c4.997,0,9.063,4.049,9.063,9.026
	s-4.066,9.026-9.063,9.026h-27.099c-8.287,0-15.029,6.809-15.029,15.177v12.636c0,4.143,3.357,7.5,7.5,7.5
	c4.143,0,7.5-3.357,7.5-7.5v-12.636c0-0.109,0.059-0.166,0.05-0.177h27.078c13.268,0,24.063-10.778,24.063-24.026
	c0-13.248-10.794-24.026-24.063-24.026H456.074z"/>
<path d="M414.945,223.586h13.55c4.143,0,7.5-3.357,7.5-7.5s-3.357-7.5-7.5-7.5h-13.55c-4.996,0-9.061-4.05-9.061-9.028
	c0-4.977,4.065-9.025,9.061-9.025h39.144c13.267,0,24.061-10.779,24.061-24.028c0-13.248-10.794-24.026-24.061-24.026h-26.429
	c-4.143,0-7.5,3.357-7.5,7.5c0,4.143,3.357,7.5,7.5,7.5h26.429c4.996,0,9.061,4.049,9.061,9.026c0,4.979-4.065,9.028-9.061,9.028
	h-39.144c-13.267,0-24.061,10.777-24.061,24.025C390.885,212.807,401.679,223.586,414.945,223.586z"/>
<path d="M287.788,198.053c-1.973-3.537-5.331-5.648-8.985-5.648s-7.013,2.111-8.985,5.648l-11.206,20.093
	c-2.592,4.647-2.592,11.393,0,16.041l11.206,20.093c1.973,3.537,5.331,5.648,8.985,5.648s7.013-2.111,8.986-5.648l11.204-20.093
	c2.592-4.648,2.592-11.394,0.001-16.041L287.788,198.053z M285.853,226.951l-7.051,12.644l-7.052-12.644
	c-0.126-0.373-0.126-1.196,0-1.57l7.052-12.644l7.051,12.644C285.979,225.754,285.979,226.578,285.853,226.951z"/>
<path d="M233.479,254.281l11.206-20.093c2.592-4.648,2.592-11.394,0-16.041l-11.206-20.093c-1.973-3.537-5.332-5.648-8.986-5.648
	c-3.654,0-7.013,2.111-8.986,5.648L204.3,218.146c-2.592,4.647-2.592,11.393,0,16.041l11.206,20.093
	c1.973,3.537,5.332,5.648,8.986,5.648S231.506,257.818,233.479,254.281z M231.545,226.951l-7.052,12.644l-7.052-12.644
	c-0.127-0.373-0.127-1.196,0-1.57l7.052-12.644l7.052,12.644C231.671,225.754,231.671,226.578,231.545,226.951z"/>
<path d="M170.155,259.929c3.654,0,7.013-2.111,8.986-5.648l11.206-20.093c2.592-4.648,2.592-11.394,0-16.041l-11.206-20.093
	c-1.973-3.537-5.332-5.648-8.986-5.648s-7.013,2.111-8.986,5.648l-11.206,20.093c-2.592,4.647-2.592,11.393,0,16.041l11.206,20.093
	C163.141,257.818,166.501,259.929,170.155,259.929z M163.102,225.381l7.052-12.644l7.052,12.644c0.126,0.373,0.126,1.197,0,1.57
	l-7.052,12.644l-7.052-12.644C162.976,226.578,162.976,225.755,163.102,225.381z"/>
<path d="M199.335,270.625c-4.142,0-7.5,3.357-7.5,7.5v4.022c0,4.143,3.358,7.5,7.5,7.5s7.5-3.357,7.5-7.5v-4.022
	C206.835,273.983,203.477,270.625,199.335,270.625z"/>
<path d="M250.627,270.625c-4.142,0-7.5,3.357-7.5,7.5v4.022c0,4.143,3.358,7.5,7.5,7.5c4.142,0,7.5-3.357,7.5-7.5v-4.022
	C258.127,273.983,254.769,270.625,250.627,270.625z"/>
<path d="M294.42,278.125v4.022c0,4.143,3.358,7.5,7.5,7.5c4.143,0,7.5-3.357,7.5-7.5v-4.022c0-4.143-3.357-7.5-7.5-7.5
	C297.777,270.625,294.42,273.983,294.42,278.125z"/>
<path d="M139.537,278.125v4.022c0,4.143,3.358,7.5,7.5,7.5c4.142,0,7.5-3.357,7.5-7.5v-4.022c0-4.143-3.358-7.5-7.5-7.5
	C142.895,270.625,139.537,273.983,139.537,278.125z"/>
<path d="M508.958,328.189c-2.951-3.913-7.696-6.157-13.017-6.157H462.04c0.282-6.059,0.435-12.178,0.435-18.347
	c0-7.233-5.885-13.118-13.118-13.118h-84.395c12.897-21.06,20.603-49.756,20.603-81.198c0-30.474-7.289-59.231-20.525-80.978
	c-13.945-22.909-32.884-35.526-53.325-35.526c-8.315,0-16.481,2.177-24.181,6.319c-0.738-1.961-1.067-2.346-1.566-2.92
	c-2.056-2.368-4.876-3.885-7.934-4.351c-3.063-15.752-13.117-29.029-26.793-36.466c1.585-2.641,2.504-5.725,2.504-9.023
	c0-9.712-7.901-17.612-17.613-17.612h-20.227c-9.712,0-17.614,7.9-17.614,17.612c0,3.299,0.919,6.383,2.504,9.024
	C187.117,62.883,177.062,76.161,174,91.912c-3.058,0.466-5.878,1.984-7.932,4.352c-1.386,1.597-1.44,1.659-12.237,36.969
	c-7.059,23.089-15.325,50.531-22.676,75.289c-10.478,35.289-17.622,60.049-22.498,77.508c-10.872-6.941-16.576-19.387-20.192-42.818
	c-6.243-40.449-13.319-86.294-61.079-109.622c-3.042-1.479-6.652-1.665-9.847-0.483c-3.196,1.187-5.802,3.662-7.15,6.794
	l-9.369,21.767c-2.603,6.044-0.05,13.122,5.809,16.112c23.029,11.761,27.526,34.206,33.494,72.863
	c3.476,22.524,7.415,48.054,18.021,73.078c13.786,32.528,33.489,48.493,50.385,56.3c8.11,18.678,20.692,35.364,37.062,48.575
	c2.325,1.875,5.251,2.908,8.238,2.908h37.971c4.142,0,7.5-3.357,7.5-7.5c0-4.143-3.358-7.5-7.5-7.5h-37.305
	c-26.37-21.532-41.487-53.323-41.511-87.346c0.89-12.978,55.719-195.782,64.536-222.414h96.567
	c3.723,11.561,17.599,56.866,32.651,107.646c10.344,34.897,17.345,59.215,22.085,76.175h-34.558
	c-7.234,0-13.119,5.885-13.119,13.118c0,40.996,6.343,79.941,17.647,111.405c-0.553,0.471-1.089,0.955-1.652,1.415h-64.34
	c-4.142,0-7.5,3.357-7.5,7.5c0,4.143,3.358,7.5,7.5,7.5h65.008c2.396,0,4.747-0.675,6.786-1.907
	c1.605,3.61,3.285,7.087,5.034,10.426h-31.44c-3.486,0-6.542,1.688-8.174,4.514c-1.632,2.826-1.565,6.316,0.179,9.334l13.263,22.969
	c2.158,3.737,6.679,6.347,10.994,6.347H449.17c4.316,0,8.838-2.611,10.995-6.349l13.259-22.966c1.744-3.018,1.812-6.509,0.18-9.335
	c-1.632-2.826-4.688-4.514-8.174-4.514H433.99c1.452-2.77,2.854-5.641,4.205-8.599h30.775c9.474,0,18.934-7.136,21.536-16.244
	l4.891-17.118c1.138-3.983-1.169-8.134-5.151-9.272c-3.98-1.136-8.134,1.168-9.273,5.151l-4.891,17.118
	c-0.773,2.708-4.296,5.365-7.112,5.365h-24.631c0.895-2.446,1.763-4.938,2.597-7.475h16.32c3.349,0,6.292-2.22,7.212-5.439
	l14.126-49.443c0.646-2.263,0.193-4.698-1.225-6.577c-1.417-1.879-3.634-2.983-5.987-2.983h-17.048
	c0.263-2.476,0.498-4.969,0.714-7.475h34.894c0.665,0,0.995,0.155,1.026,0.168c0.035,0.075,0.094,0.435-0.09,1.076l-6.188,21.665
	c-1.138,3.982,1.169,8.134,5.152,9.271c3.979,1.134,8.133-1.169,9.271-5.152l6.188-21.663
	C512.764,337.281,511.909,332.102,508.958,328.189z M72.153,317.868c-9.877-23.305-13.666-47.854-17.008-69.513
	c-5.514-35.728-10.294-66.691-39.45-82.846l7.432-17.266c38.615,20.184,44.397,57.644,50.512,97.257
	c3.45,22.355,9.668,44.394,30.918,55.45c-6.373,23.679-6.373,26.623-6.373,28.128c0,9.917,1.139,19.665,3.328,29.095
	C86.967,346.9,77.752,331.078,72.153,317.868z M215.902,49.038c-1.441,0-2.614-1.173-2.614-2.615c0-1.44,1.173-2.612,2.614-2.612
	h20.227c1.441,0,2.613,1.172,2.613,2.612c0,1.442-1.172,2.615-2.613,2.615H215.902z M226.017,64.038
	c17.387,0,32.07,11.74,36.572,27.706h-73.145C193.945,75.778,208.628,64.038,226.017,64.038z M340.633,276.447
	c9.722-15.518,16.839-38.761,16.839-67.079c0-13.063-1.509-25.588-4.484-37.226c-1.026-4.012-5.107-6.433-9.125-5.408
	c-4.013,1.026-6.434,5.111-5.408,9.125c2.666,10.423,4.018,21.697,4.018,33.509c0,18.492-3.28,33.946-7.928,45.845
	c-3.768-13.013-8.269-28.37-13.651-46.52c-6.401-21.583-13.46-45.092-19.799-65.948c4.171-4.599,8.055-6.787,10.621-6.787
	c2.726,0,7.935,2.748,13.65,10.493c2.459,3.333,7.156,4.039,10.488,1.582c3.333-2.459,4.041-7.155,1.582-10.488
	c-7.893-10.696-17.026-16.587-25.721-16.587c-5.169,0-10.43,2.104-15.455,5.935c-1.619-5.295-2.943-9.615-4.04-13.171
	c5.605-3.49,12.116-5.856,19.495-5.856c15.006,0,29.394,10.06,40.512,28.326c11.826,19.428,18.339,45.417,18.339,73.178
	c0,32.669-9.221,62.446-23.756,81.198h-2.214C343.428,286.354,342.113,281.668,340.633,276.447z M447.841,468.187H295.98
	l-7.601-13.163H455.44L447.841,468.187z M326.987,440.024c-19.066-31.733-30.38-80.983-30.638-134.457h151.119
	c-0.259,53.47-11.57,102.721-30.638,134.457L326.987,440.024L326.987,440.024z M467.439,359.507l-9.84,34.443h-6.22
	c2.89-10.904,5.253-22.44,7.043-34.443L467.439,359.507L467.439,359.507z"/>
<path d="M437.604,353.992l-9.378-17.918c-1.917-3.662-5.268-5.849-8.963-5.849s-7.046,2.186-8.963,5.85l-9.377,17.916
	c-2.398,4.582-2.398,11.234,0,15.815l9.377,17.916c1.917,3.662,5.268,5.849,8.963,5.849s7.046-2.186,8.963-5.849l9.379-17.918
	C440.002,365.224,440.001,358.573,437.604,353.992z M424.314,362.852l-5.052,9.651l-5.019-9.583
	c-0.177-0.448-0.177-1.591-0.032-1.972l5.052-9.651l5.018,9.584C424.459,361.329,424.458,362.473,424.314,362.852z"/>
<path d="M390.262,353.992l-9.377-17.918c-1.917-3.662-5.268-5.849-8.963-5.849s-7.046,2.186-8.963,5.85l-9.378,17.916
	c-2.397,4.581-2.398,11.232,0,15.816l9.378,17.915c1.917,3.662,5.268,5.849,8.963,5.849s7.046-2.186,8.963-5.85l9.377-17.914
	C392.661,365.227,392.661,358.573,390.262,353.992z M376.973,362.853l-5.052,9.65l-5.018-9.582
	c-0.177-0.448-0.178-1.592-0.033-1.973l5.052-9.651l5.019,9.584C377.117,361.329,377.117,362.472,376.973,362.853z"/>
<path d="M342.896,353.992l-9.377-17.918c-1.917-3.662-5.268-5.849-8.963-5.849c-3.695,0-7.046,2.186-8.963,5.849l-9.379,17.917
	c-2.398,4.582-2.398,11.234,0,15.816l9.379,17.915c1.917,3.662,5.268,5.849,8.963,5.849c3.695,0,7.046-2.186,8.963-5.85
	l9.377-17.914C345.295,365.227,345.295,358.573,342.896,353.992z M329.606,362.853l-5.052,9.651l-5.02-9.584
	c-0.177-0.448-0.177-1.591-0.032-1.971l5.053-9.653l5.018,9.585C329.751,361.329,329.751,362.472,329.606,362.853z"/>
<path d="M349.991,402.66c-4.143,0-7.5,3.357-7.5,7.5v3.737c0,4.143,3.357,7.5,7.5,7.5c4.142,0,7.5-3.357,7.5-7.5v-3.737
	C357.491,406.018,354.134,402.66,349.991,402.66z"/>
<path d="M394.703,402.66c-4.143,0-7.5,3.357-7.5,7.5v3.737c0,4.143,3.357,7.5,7.5,7.5s7.5-3.357,7.5-7.5v-3.737
	C402.203,406.018,398.846,402.66,394.703,402.66z"/>
<g>
</g>
<g>
</g>
<g>
</g>
<g>
</g>
<g>
</g>
<g>
</g>
<g>
</g>
<g>
</g>
<g>
</g>
<g>
</g>
<g>
</g>
<g>
</g>
<g>
</g>
<g>
</g>
<g>
</g>
</svg>
