<svg height="400pt" viewBox="0 0 400 400" width="400pt" xmlns="http://www.w3.org/2000/svg"><path d="m200 10c104.929688 0 190 85.070312 190 190 .035156 65.152344-33.339844 125.769531-88.410156 160.578125l-.058594-.089844v-39.179687c0-55.015625-44.601562-99.617188-99.617188-99.617188h-3.824218c-55.015625-.003906-99.617188 44.597656-99.621094 99.613282v39.183593l-.058594.089844c-55.070312-34.808594-88.445312-95.425781-88.410156-160.578125 0-104.929688 85.070312-190 190-190zm50.199219 120.089844c0-27.722656-22.472657-50.199219-50.199219-50.199219s-50.199219 22.476563-50.199219 50.199219c0 27.726562 22.472657 50.199218 50.199219 50.199218s50.199219-22.472656 50.199219-50.199218zm0 0" fill="#e48e66"/><path d="m301.53125 360.488281.058594.089844c-62.046875 39.230469-141.132813 39.230469-203.179688 0l.058594-.089844v-39.179687c0-55.015625 44.601562-99.617188 99.617188-99.617188h3.824218c55.015625-.003906 99.617188 44.597656 99.621094 99.613282zm0 0" fill="#f8ec7d"/><path d="m200 79.898438c27.726562 0 50.199219 22.476562 50.199219 50.203124 0 27.722657-22.472657 50.199219-50.199219 50.199219s-50.199219-22.476562-50.199219-50.199219v-.011718c.003907-27.71875 22.476563-50.191406 50.199219-50.191406zm0 0" fill="#f8ec7d"/><path d="m200 79.898438c-27.722656-.390626-50.515625 21.765624-50.90625 49.488281-.390625 27.722656 21.765625 50.511719 49.488281 50.902343.472657.007813.945313.007813 1.417969 0zm0 0" fill="#e2d574"/><path d="m200 221.691406h-1.910156c-55.015625-.003906-99.617188 44.597656-99.621094 99.613282v39.183593l-.058594.089844c30.375 19.273437 65.617188 29.476563 101.589844 29.421875zm0 0" fill="#e2d574"/><path d="m200 180.289062c-27.722656.394532-50.515625-21.761718-50.90625-49.484374-.390625-27.722657 21.765625-50.515626 49.488281-50.90625.472657-.003907.945313-.003907 1.417969 0v-69.898438c-104.929688 0-190 85.070312-190 190-.035156 65.152344 33.339844 125.769531 88.410156 160.578125l.058594-.089844v-39.179687c0-55.015625 44.601562-99.617188 99.617188-99.617188h1.914062zm0 0" fill="#d18162"/><g fill="#63316d"><path d="m200 0c-110.28125 0-200 89.71875-200 200 0 110.457031 89.542969 200 200 200s200-89.542969 200-200c0-110.28125-89.71875-200-200-200zm-92 355v-33.691406c0-49.414063 40.671875-89.308594 90.089844-89.308594h3.820312c49.417969 0 90.089844 39.894531 90.089844 89.308594v33.691406c-56.804688 33.332031-127.195312 33.332031-184 0zm204-13.710938v-19.980468c0-60.445313-49.644531-109.308594-110.089844-109.308594h-3.820312c-60.445313 0-110.089844 48.863281-110.089844 109.308594v19.980468c-43.226562-34.125-68.382812-86.214843-68.234375-141.289062 0-99.253906 80.863281-180 180.117187-180 99.25 0 180.292969 80.746094 180.292969 180 .167969 55.066406-24.964843 107.15625-68.175781 141.289062zm0 0"/><path d="m200 69.898438c-33.246094 0-60.199219 26.953124-60.199219 60.203124 0 33.246094 26.953125 60.199219 60.199219 60.199219s60.199219-26.953125 60.199219-60.199219v-.011718c-.039063-33.230469-26.96875-60.15625-60.199219-60.191406zm0 100.390624c-22.203125 0-40.199219-17.996093-40.199219-40.199218s17.996094-40.199219 40.199219-40.199219 40.199219 17.996094 40.199219 40.199219-17.996094 40.199218-40.199219 40.199218zm0 0"/></g></svg>