<svg height="474pt" viewBox="0 0 474 474.46121" width="474pt" xmlns="http://www.w3.org/2000/svg"><path d="m310.621094 385.03125h111.960937l-36.839843-38.0625 36.839843-38.070312h-111.960937zm-10.300782-125.589844c48.8125-28.839844 111.339844-18.003906 147.597657 25.585938 36.261719 43.585937 35.539062 107.039062-1.707031 149.789062-37.242188 42.75-100 52.160156-148.140626 22.214844-48.144531-29.945312-67.449218-90.398438-45.570312-142.703125 9.585938-22.984375 26.363281-42.242187 47.820312-54.886719zm0 0" fill="#fedb41"/><path d="m422.582031 308.898438-36.839843 38.070312 36.839843 38.0625h-111.960937v-76.132812zm0 0" fill="#00acea"/><path d="m403.628906 201.699219c.011719 16.246093-1.933594 32.433593-5.796875 48.210937-32.316406-11.386718-68.011719-7.898437-97.511719 9.53125v-17.230468c0-26.191407-21.226562-47.429688-47.417968-47.441407-11.921875 16.222657-30.847656 25.800781-50.976563 25.800781-20.128906 0-39.054687-9.578124-50.976562-25.800781-26.1875.015625-47.410157 21.25-47.410157 47.441407v72.117187h148.960938c-11.058594 26.511719-11.898438 56.179687-2.359375 83.273437-15.777344 3.863282-31.964844 5.808594-48.210937 5.796876-111.398438 0-201.699219-90.296876-201.699219-201.699219 0-111.398438 90.300781-201.699219 201.699219-201.699219 111.402343 0 201.699218 90.300781 201.699218 201.699219zm-148.988281-90.46875c0-29.113281-23.597656-52.710938-52.710937-52.710938-29.109376 0-52.710938 23.597657-52.710938 52.710938 0 29.109375 23.601562 52.710937 52.710938 52.710937 29.113281-.003906 52.710937-23.601562 52.710937-52.710937zm0 0" fill="#00efd1"/><path d="m300.320312 242.210938v17.230468c-21.410156 12.699219-38.171874 31.941406-47.820312 54.886719h-148.960938v-72.117187c0-26.191407 21.222657-47.425782 47.410157-47.441407 11.921875 16.222657 30.847656 25.800781 50.976562 25.800781 20.128907 0 39.054688-9.578124 50.976563-25.800781 26.191406.011719 47.417968 21.25 47.417968 47.441407zm0 0" fill="#00acea"/><path d="m254.640625 111.230469c0 29.109375-23.597656 52.710937-52.710937 52.710937-29.109376 0-52.710938-23.601562-52.710938-52.710937 0-29.113281 23.601562-52.710938 52.710938-52.710938 29.113281 0 52.710937 23.597657 52.710937 52.710938zm0 0" fill="#00acea"/><path d="m318.621094 465.648438-16-4v-154.277344h16zm0 0" fill="#00efd1"/></svg>